HIERARCHY
ROOT Character1_Hips
{
  OFFSET 0 0 0
  CHANNELS 6 Xposition Yposition Zposition Zrotation Xrotation Yrotation
  JOINT Character1_Spine
  {
    OFFSET 0 8.754 -1.339
    CHANNELS 3 Zrotation Xrotation Yrotation
    JOINT Character1_Spine1
    {
      OFFSET 0 10.855 -0.645
      CHANNELS 3 Zrotation Xrotation Yrotation
      JOINT Character1_LeftShoulder
      {
        OFFSET 1.467 27.745 1.178
        CHANNELS 3 Zrotation Xrotation Yrotation
        JOINT Character1_LeftArm
        {
          OFFSET 18.486 -1.858 0.275
          CHANNELS 3 Zrotation Xrotation Yrotation
          JOINT Character1_LeftForeArm
          {
            OFFSET 31.798 2.36 2.921
            CHANNELS 3 Zrotation Xrotation Yrotation
            JOINT Character1_LeftHand
            {
              OFFSET 29.001 1.642 2.112
              CHANNELS 3 Zrotation Xrotation Yrotation
              End Site
              {
                OFFSET 0.269758 0.141128 0.89614
              }
            }
            JOINT L_Radius_RIGMESH
            {
              OFFSET 0.592911 0.209926 -0.435177
              CHANNELS 3 Zrotation Xrotation Yrotation
              End Site
              {
                OFFSET 0 0 0
              }
            }
          }
          JOINT L_Humerus_RIGMESH
          {
            OFFSET 0.000383861 -0.000257932 -6.47351e-005
            CHANNELS 3 Zrotation Xrotation Yrotation
            End Site
            {
              OFFSET 0 0 0
            }
          }
        }
        JOINT L_Shoulder_RIGMESH
        {
          OFFSET 3.24498e-005 -0.000608592 -0.000527677
          CHANNELS 3 Zrotation Xrotation Yrotation
          End Site
          {
            OFFSET 0 0 0
          }
        }
      }
      JOINT Character1_RightShoulder
      {
        OFFSET -1.467 27.745 1.178
        CHANNELS 3 Zrotation Xrotation Yrotation
        JOINT Character1_RightArm
        {
          OFFSET -18.486 -1.858 0.275
          CHANNELS 3 Zrotation Xrotation Yrotation
          JOINT Character1_RightForeArm
          {
            OFFSET -31.798 2.35964 2.92082
            CHANNELS 3 Zrotation Xrotation Yrotation
            JOINT Character1_RightHand
            {
              OFFSET -29.0007 1.64167 2.112
              CHANNELS 3 Zrotation Xrotation Yrotation
              End Site
              {
                OFFSET 161.773 0.141827 0.896322
              }
            }
            JOINT R_Radius_RIGMESH
            {
              OFFSET 104.095 0.21029 -0.434995
              CHANNELS 3 Zrotation Xrotation Yrotation
              End Site
              {
                OFFSET 0 0 0
              }
            }
          }
          JOINT R_Humerus_RIGMESH
          {
            OFFSET 39.9064 -0.000257932 -6.47351e-005
            CHANNELS 3 Zrotation Xrotation Yrotation
            End Site
            {
              OFFSET 0 0 0
            }
          }
        }
        JOINT R_Shoulder_RIGMESH
        {
          OFFSET -3.24498e-005 -0.000608592 -0.000527677
          CHANNELS 3 Zrotation Xrotation Yrotation
          End Site
          {
            OFFSET 0 0 0
          }
        }
      }
      JOINT Character1_Neck
      {
        OFFSET 0 30.836 0.626
        CHANNELS 3 Zrotation Xrotation Yrotation
        JOINT Character1_Head
        {
          OFFSET 0 8.074 3.498
          CHANNELS 3 Zrotation Xrotation Yrotation
          End Site
          {
            OFFSET 0 -0.00153379 1.54668e-005
          }
        }
        JOINT Neck_RIGMESH
        {
          OFFSET -0.14921 0.0452623 -0.338917
          CHANNELS 3 Zrotation Xrotation Yrotation
          End Site
          {
            OFFSET 0 0 0
          }
        }
      }
      JOINT Torso_RIGMESH
      {
        OFFSET 0 -0.000828813 -0.000380861
        CHANNELS 3 Zrotation Xrotation Yrotation
        End Site
        {
          OFFSET 0 0 0
        }
      }
    }
    JOINT Spine_RIGMESH
    {
      OFFSET -0.309447 0.504254 1.21303
      CHANNELS 3 Zrotation Xrotation Yrotation
      End Site
      {
        OFFSET 0 0 0
      }
    }
  }
  JOINT Character1_RightUpLeg
  {
    OFFSET -9.035 -4.63425 1.845
    CHANNELS 3 Zrotation Xrotation Yrotation
    JOINT Character1_RightLeg
    {
      OFFSET -0.919521 -40.345 1.155
      CHANNELS 3 Zrotation Xrotation Yrotation
      JOINT Character1_RightFoot
      {
        OFFSET 1.95452 -45.2655 -4.18888
        CHANNELS 3 Zrotation Xrotation Yrotation
        JOINT Character1_RightToeBase
        {
          OFFSET 1.87056 -6.69517 14.7145
          CHANNELS 3 Zrotation Xrotation Yrotation
          End Site
          {
            OFFSET 0 0 0
          }
        }
        JOINT R_Talus_RIGMESH
        {
          OFFSET 8 -7.75529 4.18888
          CHANNELS 3 Zrotation Xrotation Yrotation
          End Site
          {
            OFFSET 0 0 0
          }
        }
      }
      JOINT R_Tibia_RIGMESH
      {
        OFFSET 0 0 0
        CHANNELS 3 Zrotation Xrotation Yrotation
        End Site
        {
          OFFSET 0 0 0
        }
      }
    }
    JOINT R_Femur_RIGMESH
    {
      OFFSET 0 0 0
      CHANNELS 3 Zrotation Xrotation Yrotation
      End Site
      {
        OFFSET 0 0 0
      }
    }
  }
  JOINT Character1_LeftUpLeg
  {
    OFFSET 9.035 -4.63425 1.845
    CHANNELS 3 Zrotation Xrotation Yrotation
    JOINT Character1_LeftLeg
    {
      OFFSET 0.919521 -40.345 1.155
      CHANNELS 3 Zrotation Xrotation Yrotation
      JOINT Character1_LeftFoot
      {
        OFFSET -1.95452 -45.2655 -4.18888
        CHANNELS 3 Zrotation Xrotation Yrotation
        JOINT Character1_LeftToeBase
        {
          OFFSET -1.87056 -6.69517 14.7145
          CHANNELS 3 Zrotation Xrotation Yrotation
          End Site
          {
            OFFSET 0 0 0
          }
        }
        JOINT L_Talus_RIGMESH
        {
          OFFSET -8 -7.75529 4.18888
          CHANNELS 3 Zrotation Xrotation Yrotation
          End Site
          {
            OFFSET 0 0 0
          }
        }
      }
      JOINT L_Tibia_RIGMESH
      {
        OFFSET 0 0 0
        CHANNELS 3 Zrotation Xrotation Yrotation
        End Site
        {
          OFFSET 0 0 0
        }
      }
    }
    JOINT L_Femur_RIGMESH
    {
      OFFSET 0 0 0
      CHANNELS 3 Zrotation Xrotation Yrotation
      End Site
      {
        OFFSET 0 0 0
      }
    }
  }
  JOINT Pelvis_RIGMESH
  {
    OFFSET 0 0 0
    CHANNELS 3 Zrotation Xrotation Yrotation
    End Site
    {
      OFFSET 0 0 0
    }
  }
}
MOTION
Frames:	8
Frame Time:	0.00833333
-7.30485 104.934 58.7847 2.66131 16.1513 36.4889 0 0 -3.18055e-015 -16.5367 -26.6891 -8.13433 -1.08077e-007 -1.07508e-006 -3.11342e-006 -3.11542 48.7733 -64.6366 14.6777 -7.51439 -26.9273 0.0171991 -3.74307 0.526921 8.82781e-032 7.95139e-016 -6.36111e-015 -3.18055e-015 -3.18055e-015 -6.36111e-015 1.59028e-015 -4.77083e-015 -3.18055e-015 -1.08077e-007 -1.07508e-006 -3.11342e-006 57.597 27.1754 7.18258 -9.72187 -3.97422 17.2813 -0.161752 -11.3879 -1.62202 -8.82781e-032 -1.59028e-015 -3.18055e-015 -3.18055e-015 3.18055e-015 3.18055e-015 1.59028e-015 -4.77083e-015 -3.18055e-015 -0 0 6.36111e-015 0.469692 13.0211 6.8501 -1.51251 2.97408 2.11515 -0 0 6.36111e-015 -13.1459 -15.222 -5.91774 0.951799 -23.1878 13.8586 0.348844 26.3717 0.211157 1.94913 0.0665097 -33.9153 -0.758994 55.3507 1.44715 -0 0 6.36111e-015 -8.82781e-032 1.59028e-015 3.18055e-015 5.96354e-016 2.98177e-015 3.18055e-015 74.9378 -2.29088 103.213 -178.504 55.1918 154.257 -13.335 18.9818 42.3618 0.418752 45.1796 -1.00648 -0 -3.18055e-015 -0 -6.36111e-015 -1.59028e-015 4.77083e-015 -6.36111e-015 -3.97569e-016 -1.19271e-015 0 0 -3.18055e-015 
-7.45232 104.877 58.6187 3.49103 15.9345 33.7855 -7.06225e-031 -6.36111e-015 -6.36111e-015 -16.5738 -26.4832 -8.60155 -1.08077e-007 -1.07508e-006 -3.11342e-006 0.420478 49.6776 -67.9471 15.1557 -7.92673 -27.9099 0.0450959 -5.95923 0.840237 3.53113e-031 -3.18055e-015 6.36111e-015 3.18055e-015 6.36111e-015 -0 -0 -1.59028e-015 -0 -1.08077e-007 -1.07508e-006 -3.11342e-006 57.5977 32.1728 7.83174 -10.7497 -4.60706 19.2159 -0.311751 -14.9828 -2.15558 0 6.36111e-015 -0 -1.76556e-031 -3.18055e-015 -3.18055e-015 -0 -1.59028e-015 -0 7.95139e-016 -1.59028e-015 -0 1.03748 12.9207 2.87896 -2.09851 2.76119 0.810062 7.95139e-016 -1.59028e-015 -0 -13.1817 -14.6961 -6.26396 0.998998 -23.242 13.7557 0.376293 26.4785 0.1111 2.19313 0.61512 -33.4463 -0.736997 54.8424 1.42006 -7.95139e-016 0 1.59028e-015 1.59028e-015 -3.18055e-015 -0 -3.97569e-016 -3.18055e-015 -0 74.6286 -2.36954 103.058 -176.215 54.9313 139.342 -0.603004 14.479 41.0701 0.455467 46.5634 -1.0563 3.53113e-031 -6.36111e-015 3.18055e-015 3.18055e-015 1.59028e-015 1.59028e-015 6.36111e-015 -7.95139e-016 3.97569e-016 -7.06225e-031 -6.36111e-015 -6.36111e-015 
-7.59996 104.813 58.4399 4.42074 15.7207 30.8783 8.82781e-032 1.59028e-015 -3.18055e-015 -16.6516 -26.2734 -8.84585 -1.08077e-007 -1.07508e-006 -3.11342e-006 4.121 50.258 -71.4158 15.6292 -8.35076 -28.8938 0.0829088 -8.11811 1.14882 1.59028e-015 1.59028e-015 -3.18055e-015 3.18055e-015 3.18055e-015 3.18055e-015 -7.95139e-016 1.59028e-015 3.18055e-015 -1.08077e-007 -1.07508e-006 -3.11342e-006 57.5284 36.3193 8.48576 -11.7802 -5.29776 21.1798 -0.433213 -17.8875 -2.5995 9.54166e-015 9.54166e-015 -1.59028e-015 3.18055e-015 3.18055e-015 -0 -7.95139e-016 1.59028e-015 3.18055e-015 7.95139e-016 0 -0 1.54578 12.84 -1.22806 -2.66993 2.59007 -0.54814 7.95139e-016 0 -0 -13.338 -14.1116 -6.46451 0.984323 -23.3197 13.6922 0.412213 26.5792 0.0180983 2.73527 1.82795 -32.725 -0.695448 53.8439 1.36876 0 3.18055e-015 -0 5.29669e-031 -4.77083e-015 6.36111e-015 2.78299e-015 7.95139e-016 -3.18055e-015 74.2414 -2.37367 102.838 -175.058 54.6821 131.44 9.54894 12.9405 41.2926 0.511868 48.5411 -1.13216 3.18055e-015 -8.34896e-015 -6.36111e-015 -6.36111e-015 -4.77083e-015 -3.18055e-015 -3.18055e-015 0 3.97569e-016 8.82781e-032 1.59028e-015 -3.18055e-015 
-7.73993 104.739 58.2559 5.36156 15.4716 27.8807 0 0 -0 -16.7111 -26.0267 -8.96547 -1.08077e-007 -1.07508e-006 -3.11342e-006 7.76737 50.5383 -74.7847 16.1103 -8.79425 -29.9061 0.131323 -10.2538 1.4574 3.18055e-015 7.95139e-016 -1.59028e-015 -9.54166e-015 0 3.18055e-015 7.95139e-016 6.36111e-015 -9.54166e-015 -1.08077e-007 -1.07508e-006 -3.11342e-006 57.2777 39.9923 9.24718 -12.8131 -6.04054 23.186 -0.542873 -20.3687 -2.98999 -3.18055e-015 6.36111e-015 3.18055e-015 -3.53113e-031 3.18055e-015 6.36111e-015 7.95139e-016 6.36111e-015 -9.54166e-015 1.59028e-015 0 3.18055e-015 2.08236 12.7815 -5.36567 -3.29482 2.48142 -1.91668 1.59028e-015 0 3.18055e-015 -13.5134 -13.5161 -6.58317 0.9764 -23.3915 13.6758 0.450503 26.6764 -0.0561558 3.32174 3.31394 -31.856 -0.650752 52.7057 1.31318 -3.97569e-016 -3.18055e-015 1.59028e-015 -1.59028e-015 0 -6.36111e-015 3.97569e-016 -2.38542e-015 3.18055e-015 73.8594 -2.38957 102.622 -174.625 54.6271 128.425 16.9858 12.2332 42.2656 0.567735 50.3423 -1.20655 -5.96354e-016 -2.33572e-015 -0 0 4.77083e-015 -0 3.18055e-015 -1.19271e-015 3.97569e-016 0 0 -0 
-7.86464 104.65 58.0752 6.22259 15.1607 24.9056 3.18055e-015 0 -0 -16.6958 -25.7094 -9.06333 -1.08077e-007 -1.07508e-006 -3.11342e-006 11.1459 50.578 -77.803 16.6104 -9.26721 -30.9734 0.192404 -12.4006 1.77089 3.18055e-015 0 -1.59028e-015 -3.18055e-015 6.36111e-015 -3.18055e-015 -7.95139e-016 3.18055e-015 -6.36111e-015 -1.08077e-007 -1.07508e-006 -3.11342e-006 56.671 43.565 10.274 -13.8488 -6.83145 25.2472 -0.676199 -22.6924 -3.36906 3.18055e-015 0 1.59028e-015 -6.36111e-015 0 -3.18055e-015 -7.95139e-016 3.18055e-015 -6.36111e-015 -1.59028e-015 3.18055e-015 -3.18055e-015 2.73173 12.7334 -9.42745 -4.03884 2.45593 -3.25286 -1.59028e-015 3.18055e-015 -3.18055e-015 -13.6048 -12.9567 -6.68297 1.03678 -23.4323 13.714 0.485399 26.7862 -0.108341 3.75685 4.64584 -30.9023 -0.616347 51.7783 1.27001 -7.95139e-016 -3.18055e-015 -0 1.59028e-015 -1.59028e-015 3.18055e-015 1.19271e-015 -1.59028e-015 -3.18055e-015 73.5718 -2.50573 102.464 -174.707 54.8006 129.144 21.6319 10.9204 43.8111 0.595898 51.1967 -1.24383 1.59028e-015 3.37934e-015 9.54166e-015 3.18055e-015 -1.59028e-015 -6.36111e-015 -1.37935e-032 9.93923e-016 7.95139e-016 3.18055e-015 0 -0 
-7.97363 104.547 57.9006 6.99612 14.7839 21.9221 1.59028e-015 0 3.18055e-015 -16.5656 -25.2685 -9.11355 -1.08077e-007 -1.07508e-006 -3.11342e-006 14.1334 50.3615 -80.3418 17.1322 -9.78036 -32.1022 0.2674 -14.5919 2.09597 3.18055e-015 -2.73329e-016 -1.98785e-016 3.18055e-015 3.18055e-015 3.18055e-015 7.95139e-016 0 -9.54166e-015 -1.08077e-007 -1.07508e-006 -3.11342e-006 55.5395 47.0379 11.7345 -14.9094 -7.69522 27.401 -0.833764 -24.9369 -3.74758 -3.18055e-015 -3.97569e-015 1.59028e-015 6.36111e-015 -3.18055e-015 1.59028e-015 7.95139e-016 0 -9.54166e-015 1.59028e-015 1.59028e-015 -0 3.53911 12.6585 -13.3646 -4.97136 2.46495 -4.55139 1.59028e-015 1.59028e-015 -0 -13.5878 -12.4408 -6.74366 1.1703 -23.4177 13.8461 0.515076 26.906 -0.143456 4.06294 5.80402 -29.739 -0.5925 51.1015 1.23962 -3.97569e-016 3.18055e-015 7.95139e-016 0 0 -0 7.95139e-016 1.59028e-015 -3.18055e-015 73.4397 -2.66783 102.339 -175.218 55.1721 132.911 23.9885 8.4466 46.1557 0.584983 50.9017 -1.23064 -1.59028e-015 4.77083e-015 6.36111e-015 -0 -4.77083e-015 -0 1.27222e-014 -5.96354e-016 -0 1.59028e-015 0 3.18055e-015 
-8.07015 104.431 57.7283 7.71982 14.3577 18.889 7.95139e-016 0 -0 -16.3591 -24.7352 -9.08338 -1.08077e-007 -1.07508e-006 -3.11342e-006 16.7794 49.9329 -82.4661 17.6666 -10.3315 -33.2757 0.356749 -16.801 2.43115 3.18055e-015 -1.98785e-016 -0 -6.36111e-015 -1.59028e-015 3.18055e-015 7.95139e-016 4.77083e-015 -0 -1.08077e-007 -1.07508e-006 -3.11342e-006 53.9255 50.2182 13.6003 -15.9797 -8.64321 29.6193 -0.98429 -26.9585 -4.09822 0 6.36111e-015 -0 -3.18055e-015 0 -4.77083e-015 7.95139e-016 4.77083e-015 -0 -3.97569e-016 0 1.59028e-015 4.44727 12.5419 -17.241 -6.03377 2.51538 -5.83329 -3.97569e-016 0 1.59028e-015 -13.5195 -11.9447 -6.74458 1.3413 -23.3728 14.0546 0.542837 27.0428 -0.172013 4.31965 6.97596 -28.3635 -0.57238 50.5062 1.21361 -1.19271e-015 9.54166e-015 -7.95139e-016 -0 0 3.18055e-015 -1.32417e-031 -2.38542e-015 -3.18055e-015 73.4094 -2.8421 102.2 -176.118 55.6701 139.187 24.3801 4.92483 49.1418 0.549778 49.8674 -1.18601 7.95139e-015 5.56597e-015 -0 -3.18055e-015 -4.77083e-015 3.18055e-015 3.18055e-015 -2.38542e-015 7.95139e-016 7.95139e-016 0 -0 
-8.15254 104.301 57.5563 8.37243 13.8995 15.9018 1.59028e-015 -1.59028e-015 -3.18055e-015 -16.1396 -24.2029 -9.06628 -1.08077e-007 -1.07508e-006 -3.11342e-006 19.1828 49.4524 -84.2716 18.2071 -10.9126 -34.4852 0.460529 -18.9717 2.76887 3.18055e-015 -7.95139e-016 1.59028e-015 9.54166e-015 0 -0 3.97569e-016 3.18055e-015 -0 -1.08077e-007 -1.07508e-006 -3.11342e-006 51.9254 53.1872 15.7774 -17.0105 -9.64113 31.8192 -1.12572 -28.6902 -4.40917 -3.18055e-015 -3.18055e-015 1.59028e-015 0 3.18055e-015 -0 3.97569e-016 3.18055e-015 -0 7.95139e-016 3.18055e-015 -0 5.37976 12.4064 -21.1136 -7.09129 2.71036 -7.09571 7.95139e-016 3.18055e-015 -0 -13.415 -11.4695 -6.74718 1.54847 -23.345 14.2629 0.570681 27.23 -0.201941 4.47675 8.01134 -26.9909 -0.55677 50.0297 1.19325 -0 0 7.95139e-016 -3.18055e-015 -1.59028e-015 -9.54166e-015 -1.59028e-015 7.95139e-016 -0 73.4077 -3.15411 102.07 -177.353 56.2133 147.377 22.1911 0.73396 51.9439 0.499827 48.2415 -1.11995 -1.59028e-015 6.36111e-015 -3.18055e-015 1.59028e-015 6.36111e-015 6.36111e-015 -7.5864e-033 1.09332e-015 3.97569e-016 1.59028e-015 -1.59028e-015 -3.18055e-015 
